<svg width="12" height="12" viewBox="0 0 12 12" fill="none" xmlns="http://www.w3.org/2000/svg">
<path d="M9.74999 2.99994H9.37503V2.25001C9.37503 1.65322 9.13791 1.08101 8.71596 0.659064C8.29402 0.237021 7.72171 0 7.12502 0H2.25001C1.65322 0 1.08101 0.236991 0.659065 0.659064C0.237021 1.08101 0 1.65319 0 2.25001V7.12502C0 7.72167 0.236991 8.29402 0.659065 8.71596C1.08101 9.13791 1.65319 9.37503 2.25001 9.37503H2.99994V9.74999C2.99994 10.3468 3.23706 10.919 3.65901 11.3409C4.08095 11.763 4.65326 12 5.25008 12H9.75009C10.3469 12 10.9191 11.763 11.341 11.3409C11.7631 10.919 12.0001 10.3468 12.0001 9.74999V5.24998C12.0001 4.65319 11.7631 4.08085 11.341 3.65891C10.9191 3.23696 10.3469 2.99984 9.75009 2.99984L9.74999 2.99994ZM2.99997 5.25005V7.87499H2.25004C2.05111 7.87499 1.86041 7.79599 1.71968 7.65526C1.57908 7.51466 1.50008 7.32384 1.50008 7.12504V2.25002C1.50008 2.05109 1.57908 1.86039 1.71968 1.71966C1.86041 1.57907 2.0511 1.50007 2.25004 1.50007H7.12505C7.32385 1.50007 7.51469 1.57907 7.65528 1.71966C7.79601 1.86039 7.87501 2.05109 7.87501 2.25002V2.99996H5.25007C4.65328 2.99996 4.08093 3.23708 3.65899 3.65902C3.23705 4.08097 2.99992 4.65328 2.99992 5.2501L2.99997 5.25005ZM10.5 9.75006C10.5 9.94899 10.421 10.1397 10.2804 10.2804C10.1397 10.421 9.94898 10.5 9.75004 10.5H5.25003C5.0511 10.5 4.86026 10.421 4.71967 10.2804C4.57894 10.1397 4.49994 9.949 4.49994 9.75006V5.25005C4.49994 5.05112 4.57894 4.86028 4.71967 4.71969C4.86027 4.57896 5.05109 4.49996 5.25003 4.49996H9.75004C9.94897 4.49996 10.1397 4.57896 10.2804 4.71969C10.421 4.86029 10.5 5.05111 10.5 5.25005V9.75006Z" fill="#020D1C"/>
</svg>
