<svg width="184" height="28" viewBox="0 0 184 28" fill="none" xmlns="http://www.w3.org/2000/svg">
<path d="M183.913 5.21875L177.777 16.4254V23.4197H173.123V16.4774L166.986 5.21875H172.213L175.437 11.9531L178.687 5.21875H183.913Z" fill="#23262E"/>
<path d="M156.487 5.21875C159.001 5.21875 161.098 6.09413 162.779 7.84489C164.478 9.57832 165.328 11.7364 165.328 14.3192C165.328 16.9021 164.478 19.0688 162.779 20.8196C161.098 22.553 159.001 23.4197 156.487 23.4197H149.077V5.21875H156.487ZM156.487 18.9215C157.752 18.9215 158.784 18.5055 159.581 17.6734C160.379 16.824 160.777 15.706 160.777 14.3192C160.777 12.9325 160.379 11.8231 159.581 10.9911C158.784 10.1417 157.752 9.71699 156.487 9.71699H153.861V18.9215H156.487Z" fill="#23262E"/>
<path d="M141.658 21.08C139.821 22.9001 137.568 23.8101 134.898 23.8101C132.229 23.8101 129.966 22.9001 128.112 21.08C126.274 19.2425 125.356 16.9891 125.356 14.3196C125.356 11.6501 126.274 9.40535 128.112 7.58525C129.966 5.74782 132.229 4.8291 134.898 4.8291C137.568 4.8291 139.821 5.74782 141.658 7.58525C143.513 9.40535 144.441 11.6501 144.441 14.3196C144.441 16.9891 143.513 19.2425 141.658 21.08ZM131.388 17.8818C132.324 18.8005 133.494 19.2599 134.898 19.2599C136.302 19.2599 137.472 18.8005 138.408 17.8818C139.344 16.9458 139.812 15.7584 139.812 14.3196C139.812 12.8809 139.344 11.7021 138.408 10.7834C137.472 9.84737 136.302 9.37935 134.898 9.37935C133.494 9.37935 132.324 9.84737 131.388 10.7834C130.452 11.7021 129.984 12.8809 129.984 14.3196C129.984 15.7584 130.452 16.9458 131.388 17.8818Z" fill="#23262E"/>
<path d="M122.88 5.21875V9.71699H118.382V23.4197H113.727V9.71699H109.229V5.21875H122.88Z" fill="#23262E"/>
<path d="M101.787 18.9215H108.053V23.4197H97.1328V5.21875H101.787V18.9215Z" fill="#23262E"/>
<path d="M89.9382 22.0677C88.6035 23.2291 86.8787 23.8098 84.7639 23.8098C82.6491 23.8098 80.9157 23.2291 79.5636 22.0677C78.2289 20.9063 77.5615 19.3635 77.5615 17.4394V5.21875H82.2158V16.9974C82.2158 18.5228 83.0652 19.2855 84.7639 19.2855C86.4627 19.2855 87.3121 18.5228 87.3121 16.9974V5.21875H91.9663V17.4394C91.9663 19.3635 91.2903 20.9063 89.9382 22.0677Z" fill="#23262E"/>
<path d="M68.6541 20.7936L69.4342 23.4197H74.4524L68.4461 5.21875H62.7778L56.7715 23.4197H61.8158L62.5958 20.7936L63.7919 16.7894L65.612 10.601L67.4581 16.7894L68.6541 20.7936Z" fill="#23262E"/>
<path d="M44.0501 23.4197L38.1738 5.21875H43.2701L46.8063 17.7514L50.3685 5.21875H55.4648L49.5885 23.4197H44.0501Z" fill="#23262E"/>
<path d="M17.2152 13.1765C17.2152 15.6114 15.2413 17.5853 12.8063 17.5853C10.3714 17.5853 8.39746 15.6114 8.39746 13.1765C8.39746 10.7415 10.3714 8.76758 12.8063 8.76758C15.2413 8.76758 17.2152 10.7415 17.2152 13.1765Z" fill="#3BE08D"/>
<path d="M0 13.5317V6.56641L5.24154 9.20525V13.7103C5.24154 16.4843 6.68761 19.0577 9.05703 20.5003L11.2491 21.8349C12.1752 22.3987 13.3371 22.4046 14.2689 21.8502L16.5573 20.4886C18.966 19.0555 20.442 16.4599 20.442 13.6571V9.20525L25.5088 6.56641V13.5317C25.5088 18.2582 22.991 22.6267 18.9012 24.9959L14.5483 27.5176C13.4388 28.1603 12.0701 28.1603 10.9605 27.5176L6.60761 24.9959C2.51788 22.6267 0 18.2582 0 13.5317Z" fill="#23262E"/>
<path d="M9.13804 6.96233L3.86035 4.33839L11.1731 0.42378C12.2177 -0.135417 13.4713 -0.141539 14.5214 0.407429L22.0402 4.33839L16.9384 6.96233L13.4185 5.36669C13.0544 5.20165 12.6353 5.20982 12.2779 5.3889L9.13804 6.96233Z" fill="#23262E"/>
</svg>
